# xmcd CD database file
#
# Track frame offsets:
#	150
#	30740
#	56150
#	89381
#	110100
#	135189
#	159919
#	186859
#	212293
#
# Disc length: 3148 seconds
#
# Revision: 1
# Processed by: cddbd v1.5.2PL0 Copyright (c) Steve Scherf et al.
# Submitted via: CDex 1.51
#
DISCID=710c4a09
DTITLE=Sister Jayanti - Relaxing the Mind
DYEAR=1900
DGENRE=New Age
TTITLE0=The healing power of love
TTITLE1=Inner peace, inner power
TTITLE2=Nourishing the soul
TTITLE3=Being with God
TTITLE4=Discovering the inner being
TTITLE5=Loving God
TTITLE6=Being a lighthouse for the world
TTITLE7=Relaxing the mind
TTITLE8=Freeing the spirit
EXTD=
EXTT0=
EXTT1=
EXTT2=
EXTT3=
EXTT4=
EXTT5=
EXTT6=
EXTT7=
EXTT8=
PLAYORDER=
